<svg width="74" height="58" viewBox="0 0 74 58" fill="none" xmlns="http://www.w3.org/2000/svg">
<path d="M4.96706 17.2369C4.16643 17.2369 3.45295 17.098 2.82661 16.8203C2.20027 16.537 1.70464 16.1204 1.33973 15.5703C0.980269 15.0148 0.800537 14.3231 0.800537 13.4952C0.800537 12.7981 0.928528 12.2126 1.18451 11.7387C1.44049 11.2649 1.78906 10.8836 2.23022 10.595C2.67139 10.3063 3.17246 10.0885 3.73344 9.94141C4.29987 9.79436 4.89353 9.69088 5.51442 9.63097C6.24424 9.55472 6.83246 9.48391 7.27907 9.41856C7.72567 9.34775 8.04974 9.24427 8.25125 9.10811C8.45277 8.97195 8.55353 8.77043 8.55353 8.50356V8.45454C8.55353 7.93713 8.39014 7.53682 8.06335 7.2536C7.74201 6.97039 7.28451 6.82878 6.69085 6.82878C6.06451 6.82878 5.56616 6.96766 5.19581 7.24543C4.82545 7.51775 4.58036 7.86088 4.46054 8.27481L1.2417 8.01338C1.40509 7.25088 1.72643 6.59186 2.20572 6.03632C2.685 5.47534 3.30317 5.04507 4.06023 4.74552C4.82273 4.44052 5.70505 4.28802 6.70719 4.28802C7.40433 4.28802 8.07152 4.36972 8.70875 4.53311C9.35143 4.6965 9.92058 4.94976 10.4162 5.29289C10.9173 5.63601 11.3121 6.07717 11.6008 6.61637C11.8895 7.15012 12.0338 7.79008 12.0338 8.53624V17H8.73326V15.2599H8.63523C8.43371 15.652 8.16411 15.9978 7.82643 16.2974C7.48875 16.5915 7.08299 16.823 6.60915 16.9918C6.13532 17.1552 5.58795 17.2369 4.96706 17.2369ZM5.96375 14.835C6.47572 14.835 6.92777 14.7343 7.31991 14.5328C7.71206 14.3258 8.01978 14.048 8.24308 13.6995C8.46639 13.3509 8.57804 12.956 8.57804 12.5149V11.1832C8.46911 11.254 8.31933 11.3194 8.12871 11.3793C7.94353 11.4337 7.73384 11.4855 7.49965 11.5345C7.26545 11.5781 7.03125 11.6189 6.79706 11.657C6.56286 11.6897 6.35045 11.7197 6.15982 11.7469C5.75134 11.8068 5.3946 11.9021 5.0896 12.0328C4.7846 12.1636 4.54768 12.3406 4.37884 12.5639C4.21 12.7817 4.12558 13.054 4.12558 13.3808C4.12558 13.8547 4.29715 14.2169 4.64027 14.4674C4.98884 14.7125 5.43 14.835 5.96375 14.835Z" fill="#6FA4B7"/>
<path d="M18.2141 0.268555V17H14.7339V0.268555H18.2141Z" fill="#6FA4B7"/>
<path d="M26.7208 17.2451C25.43 17.2451 24.3189 16.9836 23.3876 16.4608C22.4617 15.9325 21.7482 15.1863 21.2471 14.2223C20.746 13.2528 20.4955 12.1064 20.4955 10.7829C20.4955 9.49208 20.746 8.35923 21.2471 7.38432C21.7482 6.4094 22.4535 5.64963 23.3631 5.10498C24.2781 4.56034 25.351 4.28802 26.5819 4.28802C27.4097 4.28802 28.1804 4.42146 28.8939 4.68833C29.6128 4.94976 30.2392 5.34463 30.7729 5.87293C31.3121 6.40124 31.7315 7.0657 32.031 7.86632C32.3306 8.6615 32.4804 9.59284 32.4804 10.6603V11.6162H21.8843V9.4594H29.2043C29.2043 8.95833 29.0954 8.51445 28.8776 8.12775C28.6597 7.74106 28.3574 7.43878 27.9707 7.22092C27.5895 6.99762 27.1456 6.88597 26.6391 6.88597C26.1108 6.88597 25.6424 7.00851 25.2339 7.2536C24.8309 7.49324 24.515 7.81731 24.2862 8.22579C24.0575 8.62882 23.9404 9.07815 23.9349 9.57378V11.6244C23.9349 12.2453 24.0493 12.7817 24.2781 13.2338C24.5122 13.6858 24.8418 14.0344 25.2666 14.2795C25.6914 14.5246 26.1952 14.6471 26.778 14.6471C27.1647 14.6471 27.5187 14.5927 27.84 14.4837C28.1614 14.3748 28.4364 14.2114 28.6652 13.9936C28.8939 13.7757 29.0682 13.5088 29.188 13.1929L32.4069 13.4053C32.2435 14.1787 31.9085 14.8541 31.402 15.4314C30.9009 16.0033 30.2528 16.4499 29.4576 16.7712C28.6679 17.0871 27.7556 17.2451 26.7208 17.2451Z" fill="#6FA4B7"/>
<path d="M34.7515 17V4.45141H38.1256V6.64088H38.2563C38.4851 5.86204 38.869 5.27382 39.4082 4.87624C39.9474 4.4732 40.5683 4.27168 41.2709 4.27168C41.4452 4.27168 41.6331 4.28257 41.8346 4.30436C42.0361 4.32615 42.2131 4.3561 42.3656 4.39423V7.48235C42.2023 7.43333 41.9762 7.38976 41.6876 7.35164C41.3989 7.31351 41.1348 7.29445 40.8951 7.29445C40.3831 7.29445 39.9256 7.4061 39.5226 7.62941C39.125 7.84726 38.8091 8.15226 38.5749 8.5444C38.3462 8.93655 38.2318 9.3886 38.2318 9.90057V17H34.7515Z" fill="#6FA4B7"/>
<path d="M49.2343 21.9671C48.1069 21.9671 47.1401 21.8119 46.3341 21.5015C45.5334 21.1965 44.8962 20.7798 44.4224 20.2515C43.9485 19.7232 43.6408 19.1295 43.4992 18.4705L46.718 18.0375C46.8161 18.2881 46.9713 18.5223 47.1837 18.7401C47.3961 18.958 47.6766 19.1323 48.0252 19.263C48.3792 19.3991 48.8095 19.4672 49.316 19.4672C50.073 19.4672 50.6966 19.282 51.1868 18.9117C51.6824 18.5468 51.9303 17.9341 51.9303 17.0735V14.7778H51.7832C51.6307 15.1264 51.402 15.4559 51.097 15.7664C50.792 16.0768 50.3998 16.3301 49.9205 16.5261C49.4412 16.7222 48.8694 16.8203 48.2049 16.8203C47.2627 16.8203 46.4049 16.6024 45.6315 16.1667C44.8635 15.7255 44.2508 15.0529 43.7933 14.1488C43.3412 13.2392 43.1152 12.09 43.1152 10.7012C43.1152 9.27967 43.3467 8.09235 43.8096 7.13923C44.2726 6.1861 44.888 5.47262 45.656 4.99878C46.4294 4.52494 47.2763 4.28802 48.1967 4.28802C48.8993 4.28802 49.4875 4.40784 49.9614 4.64748C50.4352 4.88168 50.8165 5.17579 51.1051 5.52981C51.3992 5.87838 51.6253 6.2215 51.7832 6.55918H51.9139V4.45141H55.3697V17.1225C55.3697 18.19 55.1083 19.0832 54.5854 19.8022C54.0625 20.5211 53.3382 21.0603 52.4123 21.4198C51.4918 21.7847 50.4325 21.9671 49.2343 21.9671ZM49.3078 14.206C49.8688 14.206 50.3426 14.0671 50.7293 13.7893C51.1215 13.5061 51.421 13.1031 51.628 12.5802C51.8404 12.0519 51.9466 11.4201 51.9466 10.6849C51.9466 9.94958 51.8431 9.31235 51.6362 8.77316C51.4292 8.22851 51.1296 7.80641 50.7375 7.50686C50.3453 7.20731 49.8688 7.05753 49.3078 7.05753C48.7359 7.05753 48.2539 7.21275 47.8618 7.5232C47.4696 7.8282 47.1728 8.25302 46.9713 8.79766C46.7698 9.34231 46.669 9.97137 46.669 10.6849C46.669 11.4092 46.7698 12.0356 46.9713 12.5639C47.1783 13.0867 47.4751 13.4925 47.8618 13.7811C48.2539 14.0644 48.7359 14.206 49.3078 14.206Z" fill="#6FA4B7"/>
<path d="M1.38875 41.7057V24.4514H4.82V26.5592H4.97523C5.12773 26.2215 5.34831 25.8784 5.63697 25.5298C5.93107 25.1758 6.31232 24.8817 6.78072 24.6475C7.25456 24.4078 7.84277 24.288 8.54536 24.288C9.46036 24.288 10.3046 24.5277 11.078 25.0069C11.8513 25.4808 12.4695 26.197 12.9325 27.1556C13.3954 28.1087 13.6269 29.3042 13.6269 30.742C13.6269 32.1418 13.4009 33.3236 12.9488 34.2877C12.5022 35.2462 11.8922 35.9733 11.1188 36.469C10.3509 36.9591 9.49032 37.2042 8.53719 37.2042C7.86183 37.2042 7.28724 37.0926 6.8134 36.8693C6.345 36.646 5.96103 36.3655 5.66148 36.0278C5.36192 35.6847 5.13317 35.3388 4.97523 34.9903H4.86902V41.7057H1.38875ZM4.79549 30.7257C4.79549 31.4719 4.89898 32.1227 5.10594 32.6782C5.3129 33.2338 5.61246 33.6668 6.0046 33.9772C6.39674 34.2822 6.87331 34.4347 7.43429 34.4347C8.00072 34.4347 8.48 34.2795 8.87215 33.9691C9.26429 33.6532 9.56112 33.2174 9.76264 32.6619C9.9696 32.1009 10.0731 31.4555 10.0731 30.7257C10.0731 30.0013 9.97233 29.3641 9.77081 28.814C9.56929 28.2639 9.27246 27.8336 8.88032 27.5232C8.48817 27.2128 8.00616 27.0575 7.43429 27.0575C6.86786 27.0575 6.38857 27.2073 5.99643 27.5069C5.60973 27.8064 5.3129 28.2312 5.10594 28.7813C4.89898 29.3314 4.79549 29.9795 4.79549 30.7257Z" fill="#6FA4B7"/>
<path d="M21.6658 37.2451C20.375 37.2451 19.2639 36.9836 18.3326 36.4608C17.4067 35.9325 16.6932 35.1863 16.1921 34.2223C15.6911 33.2528 15.4405 32.1064 15.4405 30.7829C15.4405 29.4921 15.6911 28.3592 16.1921 27.3843C16.6932 26.4094 17.3985 25.6496 18.3081 25.105C19.2231 24.5603 20.296 24.288 21.5269 24.288C22.3548 24.288 23.1255 24.4215 23.8389 24.6883C24.5579 24.9498 25.1842 25.3446 25.718 25.8729C26.2572 26.4012 26.6765 27.0657 26.9761 27.8663C27.2756 28.6615 27.4254 29.5928 27.4254 30.6603V31.6162H16.8294V29.4594H24.1494C24.1494 28.9583 24.0405 28.5145 23.8226 28.1278C23.6047 27.7411 23.3025 27.4388 22.9158 27.2209C22.5345 26.9976 22.0906 26.886 21.5841 26.886C21.0558 26.886 20.5874 27.0085 20.1789 27.2536C19.7759 27.4932 19.46 27.8173 19.2313 28.2258C19.0025 28.6288 18.8854 29.0782 18.88 29.5738V31.6244C18.88 32.2453 18.9943 32.7817 19.2231 33.2338C19.4573 33.6858 19.7868 34.0344 20.2116 34.2795C20.6364 34.5246 21.1402 34.6471 21.723 34.6471C22.1097 34.6471 22.4637 34.5927 22.7851 34.4837C23.1064 34.3748 23.3814 34.2114 23.6102 33.9936C23.8389 33.7757 24.0132 33.5088 24.133 33.1929L27.3519 33.4053C27.1885 34.1787 26.8535 34.8541 26.347 35.4314C25.8459 36.0033 25.1978 36.4499 24.4026 36.7712C23.6129 37.0871 22.7006 37.2451 21.6658 37.2451Z" fill="#6FA4B7"/>
<path d="M33.1768 29.7453V37H29.6966V24.4514H33.0134V26.6654H33.1605C33.4383 25.9356 33.9039 25.3582 34.5575 24.9334C35.2111 24.5032 36.0035 24.288 36.9349 24.288C37.8063 24.288 38.5661 24.4786 39.2142 24.8599C39.8623 25.2411 40.3661 25.7858 40.7256 26.4938C41.0851 27.1964 41.2648 28.0352 41.2648 29.0101V37H37.7845V29.631C37.79 28.863 37.5939 28.2639 37.1963 27.8336C36.7987 27.3979 36.2513 27.1801 35.5542 27.1801C35.0858 27.1801 34.6719 27.2808 34.3124 27.4824C33.9584 27.6839 33.6806 27.978 33.4791 28.3647C33.283 28.7459 33.1823 29.2061 33.1768 29.7453Z" fill="#6FA4B7"/>
<path d="M50.6823 24.4514V27.0657H43.1254V24.4514H50.6823ZM44.841 21.445H48.3213V33.1439C48.3213 33.4653 48.3703 33.7158 48.4684 33.8955C48.5664 34.0698 48.7026 34.1924 48.8769 34.2632C49.0566 34.334 49.2636 34.3694 49.4977 34.3694C49.6611 34.3694 49.8245 34.3557 49.9879 34.3285C50.1513 34.2958 50.2766 34.2713 50.3637 34.255L50.9111 36.8448C50.7368 36.8992 50.4917 36.9619 50.1758 37.0327C49.8599 37.1089 49.476 37.1552 49.0239 37.1716C48.1852 37.2042 47.4499 37.0926 46.8181 36.8366C46.1918 36.5806 45.7043 36.183 45.3557 35.6438C45.0072 35.1046 44.8356 34.4238 44.841 33.6014V21.445Z" fill="#6FA4B7"/>
<path d="M52.9494 37V24.4514H56.3235V26.6409H56.4542C56.683 25.862 57.0669 25.2738 57.6061 24.8762C58.1453 24.4732 58.7662 24.2717 59.4688 24.2717C59.6431 24.2717 59.831 24.2826 60.0325 24.3044C60.234 24.3261 60.411 24.3561 60.5635 24.3942V27.4824C60.4001 27.4333 60.1741 27.3898 59.8855 27.3516C59.5968 27.3135 59.3326 27.2945 59.093 27.2945C58.581 27.2945 58.1235 27.4061 57.7205 27.6294C57.3229 27.8473 57.007 28.1523 56.7728 28.5444C56.5441 28.9365 56.4297 29.3886 56.4297 29.9006V37H52.9494Z" fill="#6FA4B7"/>
<path d="M70.41 31.657V24.4514H73.8903V37H70.5489V34.7207H70.4182C70.135 35.4559 69.6638 36.0469 69.0048 36.4935C68.3512 36.9401 67.5533 37.1634 66.6111 37.1634C65.7724 37.1634 65.0344 36.9728 64.3971 36.5915C63.7599 36.2103 63.2616 35.6683 62.9021 34.9657C62.5481 34.2632 62.3683 33.4217 62.3629 32.4413V24.4514H65.8432V31.8204C65.8486 32.5611 66.0474 33.1466 66.4396 33.5769C66.8317 34.0072 67.3573 34.2223 68.0163 34.2223C68.4357 34.2223 68.8278 34.127 69.1927 33.9364C69.5576 33.7403 69.8517 33.4516 70.075 33.0704C70.3038 32.6891 70.4154 32.218 70.41 31.657Z" fill="#6FA4B7"/>
<path d="M4.86902 49.7453V57H1.38875V44.4514H4.70563V46.6654H4.85268C5.13045 45.9356 5.59612 45.3582 6.24969 44.9334C6.90326 44.5032 7.69572 44.288 8.62706 44.288C9.49849 44.288 10.2583 44.4786 10.9064 44.8599C11.5545 45.2411 12.0583 45.7858 12.4178 46.4938C12.7772 47.1964 12.957 48.0352 12.957 49.0101V57H9.4767V49.631C9.48215 48.863 9.28608 48.2639 8.88849 47.8336C8.4909 47.3979 7.94353 47.1801 7.24639 47.1801C6.77799 47.1801 6.36407 47.2808 6.0046 47.4823C5.65058 47.6839 5.37281 47.978 5.1713 48.3647C4.97523 48.7459 4.87447 49.2061 4.86902 49.7453Z" fill="#6FA4B7"/>
<path d="M15.6999 57V44.4514H19.1802V57H15.6999ZM17.4482 42.8338C16.9308 42.8338 16.4869 42.6623 16.1166 42.3191C15.7517 41.9706 15.5692 41.5539 15.5692 41.0692C15.5692 40.5899 15.7517 40.1787 16.1166 39.8356C16.4869 39.487 16.9308 39.3127 17.4482 39.3127C17.9656 39.3127 18.4068 39.487 18.7717 39.8356C19.1421 40.1787 19.3272 40.5899 19.3272 41.0692C19.3272 41.5539 19.1421 41.9706 18.7717 42.3191C18.4068 42.6623 17.9656 42.8338 17.4482 42.8338Z" fill="#6FA4B7"/>
<path d="M21.9681 57V44.4514H25.285V46.6654H25.432C25.6934 45.9301 26.1292 45.3501 26.7392 44.9253C27.3492 44.5004 28.079 44.288 28.9286 44.288C29.7892 44.288 30.5217 44.5032 31.1263 44.9334C31.7308 45.3582 32.1338 45.9356 32.3354 46.6654H32.4661C32.7221 45.9465 33.185 45.3719 33.8549 44.9416C34.5303 44.5059 35.3282 44.288 36.2486 44.288C37.4196 44.288 38.37 44.6611 39.0998 45.4073C39.8351 46.148 40.2027 47.1991 40.2027 48.5607V57H36.7306V49.247C36.7306 48.5499 36.5455 48.027 36.1751 47.6784C35.8047 47.3299 35.3418 47.1556 34.7863 47.1556C34.1545 47.1556 33.6616 47.3571 33.3076 47.7601C32.9535 48.1577 32.7765 48.6833 32.7765 49.3369V57H29.4025V49.1735C29.4025 48.558 29.2255 48.0678 28.8714 47.7029C28.5229 47.338 28.0626 47.1556 27.4908 47.1556C27.1041 47.1556 26.7555 47.2536 26.4451 47.4497C26.1401 47.6403 25.8977 47.9099 25.718 48.2585C25.5382 48.6016 25.4484 49.0046 25.4484 49.4676V57H21.9681Z" fill="#6FA4B7"/>
<path d="M46.5301 57.2369C45.7295 57.2369 45.016 57.098 44.3897 56.8203C43.7633 56.537 43.2677 56.1204 42.9028 55.5703C42.5433 55.0148 42.3636 54.3231 42.3636 53.4952C42.3636 52.7981 42.4916 52.2126 42.7476 51.7387C43.0036 51.2649 43.3521 50.8836 43.7933 50.595C44.2345 50.3063 44.7355 50.0885 45.2965 49.9414C45.8629 49.7944 46.4566 49.6909 47.0775 49.631C47.8073 49.5547 48.3955 49.4839 48.8421 49.4186C49.2887 49.3478 49.6128 49.2443 49.8143 49.1081C50.0158 48.972 50.1166 48.7704 50.1166 48.5036V48.4545C50.1166 47.9371 49.9532 47.5368 49.6264 47.2536C49.3051 46.9704 48.8476 46.8288 48.2539 46.8288C47.6276 46.8288 47.1292 46.9677 46.7589 47.2454C46.3885 47.5178 46.1434 47.8609 46.0236 48.2748L42.8048 48.0134C42.9682 47.2509 43.2895 46.5919 43.7688 46.0363C44.2481 45.4753 44.8662 45.0451 45.6233 44.7455C46.3858 44.4405 47.2681 44.288 48.2703 44.288C48.9674 44.288 49.6346 44.3697 50.2718 44.5331C50.9145 44.6965 51.4837 44.9498 51.9793 45.2929C52.4803 45.636 52.8752 46.0772 53.1639 46.6164C53.4525 47.1501 53.5969 47.7901 53.5969 48.5362V57H50.2963V55.2599H50.1983C49.9968 55.652 49.7272 55.9978 49.3895 56.2974C49.0518 56.5915 48.6461 56.823 48.1722 56.9918C47.6984 57.1552 47.151 57.2369 46.5301 57.2369ZM47.5268 54.835C48.0388 54.835 48.4908 54.7343 48.883 54.5328C49.2751 54.3258 49.5828 54.048 49.8062 53.6995C50.0295 53.3509 50.1411 52.956 50.1411 52.5149V51.1832C50.0322 51.254 49.8824 51.3194 49.6918 51.3793C49.5066 51.4337 49.2969 51.4855 49.0627 51.5345C48.8285 51.5781 48.5943 51.6189 48.3601 51.657C48.1259 51.6897 47.9135 51.7197 47.7229 51.7469C47.3144 51.8068 46.9577 51.9021 46.6527 52.0328C46.3477 52.1636 46.1107 52.3406 45.9419 52.5639C45.7731 52.7817 45.6887 53.0541 45.6887 53.3808C45.6887 53.8547 45.8602 54.2169 46.2033 54.4674C46.5519 54.7125 46.9931 54.835 47.5268 54.835Z" fill="#6FA4B7"/>
</svg>
