<svg width="237" height="237" viewBox="0 0 237 237" fill="none" xmlns="http://www.w3.org/2000/svg">
<path d="M131.828 200.533C124.323 207.347 112.769 207.347 105.264 200.435L104.178 199.447C52.3342 152.541 18.4629 121.83 19.7467 83.5146C20.3392 66.7271 28.9304 50.6309 42.8542 41.1509C68.9242 23.3759 101.117 31.6709 118.497 52.0134C135.877 31.6709 168.069 23.2771 194.139 41.1509C208.063 50.6309 216.654 66.7271 217.247 83.5146C218.629 121.83 184.659 152.541 132.815 199.645L131.828 200.533Z" fill="#E3C76B"/>
<path d="M68.7099 81.9433V105H63.9139V81.9433H68.7099ZM80.3649 105.338C78.6161 105.338 77.1038 104.966 75.8278 104.223C74.5594 103.473 73.58 102.429 72.8895 101.093C72.199 99.7499 71.8537 98.1926 71.8537 96.4213C71.8537 94.635 72.199 93.0738 72.8895 91.7379C73.58 90.3944 74.5594 89.3511 75.8278 88.6081C77.1038 87.8576 78.6161 87.4823 80.3649 87.4823C82.1137 87.4823 83.6223 87.8576 84.8907 88.6081C86.1666 89.3511 87.1498 90.3944 87.8403 91.7379C88.5308 93.0738 88.8761 94.635 88.8761 96.4213C88.8761 98.1926 88.5308 99.7499 87.8403 101.093C87.1498 102.429 86.1666 103.473 84.8907 104.223C83.6223 104.966 82.1137 105.338 80.3649 105.338ZM80.3874 101.623C81.183 101.623 81.8472 101.397 82.3801 100.947C82.913 100.489 83.3145 99.8663 83.5847 99.0782C83.8624 98.2901 84.0013 97.3932 84.0013 96.3875C84.0013 95.3818 83.8624 94.4849 83.5847 93.6968C83.3145 92.9087 82.913 92.2858 82.3801 91.8279C81.8472 91.3701 81.183 91.1412 80.3874 91.1412C79.5843 91.1412 78.9088 91.3701 78.3609 91.8279C77.8205 92.2858 77.4115 92.9087 77.1338 93.6968C76.8636 94.4849 76.7285 95.3818 76.7285 96.3875C76.7285 97.3932 76.8636 98.2901 77.1338 99.0782C77.4115 99.8663 77.8205 100.489 78.3609 100.947C78.9088 101.397 79.5843 101.623 80.3874 101.623ZM99.7852 111.845C98.2316 111.845 96.8994 111.631 95.7886 111.203C94.6853 110.783 93.8071 110.209 93.1542 109.481C92.5012 108.753 92.0771 107.935 91.882 107.026L96.3177 106.43C96.4528 106.775 96.6667 107.098 96.9594 107.398C97.2521 107.698 97.6387 107.938 98.119 108.119C98.6069 108.306 99.1998 108.4 99.8978 108.4C100.941 108.4 101.8 108.145 102.476 107.634C103.159 107.132 103.5 106.287 103.5 105.101V101.938H103.298C103.088 102.418 102.772 102.872 102.352 103.3C101.932 103.728 101.391 104.077 100.731 104.347C100.07 104.617 99.2824 104.752 98.3667 104.752C97.0683 104.752 95.8862 104.452 94.8204 103.852C93.7621 103.244 92.9177 102.317 92.2873 101.071C91.6643 99.8175 91.3529 98.2338 91.3529 96.32C91.3529 94.361 91.6718 92.7248 92.3098 91.4114C92.9478 90.0979 93.7959 89.1147 94.8542 88.4617C95.9199 87.8088 97.087 87.4823 98.3554 87.4823C99.3236 87.4823 100.134 87.6474 100.787 87.9776C101.44 88.3004 101.966 88.7057 102.363 89.1935C102.769 89.6739 103.08 90.1467 103.298 90.6121H103.478V87.7075H108.24V105.169C108.24 106.64 107.88 107.871 107.159 108.862C106.439 109.852 105.441 110.595 104.165 111.091C102.896 111.594 101.436 111.845 99.7852 111.845ZM99.8866 101.15C100.66 101.15 101.313 100.958 101.845 100.576C102.386 100.185 102.799 99.6299 103.084 98.9093C103.377 98.1813 103.523 97.3107 103.523 96.2974C103.523 95.2842 103.38 94.4061 103.095 93.663C102.81 92.9125 102.397 92.3308 101.857 91.918C101.316 91.5052 100.66 91.2988 99.8866 91.2988C99.0985 91.2988 98.4343 91.5127 97.8939 91.9405C97.3535 92.3608 96.9444 92.9463 96.6667 93.6968C96.389 94.4473 96.2502 95.3142 96.2502 96.2974C96.2502 97.2957 96.389 98.1588 96.6667 98.8868C96.9519 99.6073 97.361 100.166 97.8939 100.564C98.4343 100.955 99.0985 101.15 99.8866 101.15ZM119.87 105.338C118.121 105.338 116.609 104.966 115.333 104.223C114.064 103.473 113.085 102.429 112.394 101.093C111.704 99.7499 111.359 98.1926 111.359 96.4213C111.359 94.635 111.704 93.0738 112.394 91.7379C113.085 90.3944 114.064 89.3511 115.333 88.6081C116.609 87.8576 118.121 87.4823 119.87 87.4823C121.619 87.4823 123.127 87.8576 124.396 88.6081C125.672 89.3511 126.655 90.3944 127.345 91.7379C128.036 93.0738 128.381 94.635 128.381 96.4213C128.381 98.1926 128.036 99.7499 127.345 101.093C126.655 102.429 125.672 103.473 124.396 104.223C123.127 104.966 121.619 105.338 119.87 105.338ZM119.892 101.623C120.688 101.623 121.352 101.397 121.885 100.947C122.418 100.489 122.819 99.8663 123.09 99.0782C123.367 98.2901 123.506 97.3932 123.506 96.3875C123.506 95.3818 123.367 94.4849 123.09 93.6968C122.819 92.9087 122.418 92.2858 121.885 91.8279C121.352 91.3701 120.688 91.1412 119.892 91.1412C119.089 91.1412 118.414 91.3701 117.866 91.8279C117.325 92.2858 116.916 92.9087 116.639 93.6968C116.369 94.4849 116.233 95.3818 116.233 96.3875C116.233 97.3932 116.369 98.2901 116.639 99.0782C116.916 99.8663 117.325 100.489 117.866 100.947C118.414 101.397 119.089 101.623 119.892 101.623ZM142.274 93.6292V97.4345H131.758V93.6292H142.274ZM157.45 97.6372V87.7075H162.246V105H157.641V101.859H157.461C157.071 102.872 156.421 103.687 155.513 104.302C154.613 104.917 153.513 105.225 152.215 105.225C151.059 105.225 150.042 104.962 149.164 104.437C148.285 103.912 147.599 103.165 147.103 102.197C146.615 101.229 146.368 100.069 146.36 98.7179V87.7075H151.156V97.8623C151.164 98.8831 151.438 99.6899 151.978 100.283C152.518 100.876 153.243 101.172 154.151 101.172C154.729 101.172 155.269 101.041 155.772 100.778C156.275 100.508 156.68 100.11 156.988 99.5848C157.303 99.0594 157.457 98.4102 157.45 97.6372ZM170.878 81.9433V105H166.082V81.9433H170.878ZM73.1118 115.707V119.31H62.698V115.707H73.1118ZM65.0622 111.564H69.8582V127.686C69.8582 128.129 69.9258 128.474 70.0608 128.722C70.1959 128.962 70.3836 129.131 70.6238 129.229C70.8714 129.326 71.1566 129.375 71.4794 129.375C71.7045 129.375 71.9297 129.356 72.1549 129.319C72.38 129.274 72.5527 129.24 72.6727 129.217L73.427 132.786C73.1869 132.861 72.8491 132.947 72.4138 133.045C71.9785 133.15 71.4494 133.214 70.8264 133.236C69.6706 133.281 68.6573 133.128 67.7867 132.775C66.9236 132.422 66.2518 131.874 65.7715 131.131C65.2911 130.388 65.0547 129.45 65.0622 128.317V111.564ZM81.167 133.326C80.0637 133.326 79.0805 133.135 78.2174 132.752C77.3543 132.362 76.6713 131.788 76.1684 131.03C75.673 130.264 75.4254 129.311 75.4254 128.17C75.4254 127.21 75.6017 126.403 75.9545 125.75C76.3073 125.097 76.7876 124.571 77.3955 124.174C78.0035 123.776 78.694 123.476 79.467 123.273C80.2476 123.07 81.0657 122.928 81.9213 122.845C82.9271 122.74 83.7376 122.642 84.3531 122.552C84.9685 122.455 85.4151 122.312 85.6928 122.125C85.9705 121.937 86.1094 121.659 86.1094 121.292V121.224C86.1094 120.511 85.8842 119.959 85.4339 119.569C84.9911 119.179 84.3606 118.984 83.5425 118.984C82.6794 118.984 81.9926 119.175 81.4823 119.558C80.9719 119.933 80.6341 120.406 80.469 120.976L76.0333 120.616C76.2585 119.565 76.7013 118.657 77.3618 117.892C78.0223 117.118 78.8741 116.526 79.9174 116.113C80.9681 115.692 82.184 115.482 83.565 115.482C84.5257 115.482 85.4451 115.595 86.3233 115.82C87.2089 116.045 87.9932 116.394 88.6762 116.867C89.3667 117.34 89.9109 117.948 90.3087 118.691C90.7065 119.426 90.9053 120.308 90.9053 121.337V133H86.3571V130.602H86.222C85.9442 131.142 85.5727 131.619 85.1074 132.032C84.6421 132.437 84.0829 132.756 83.4299 132.989C82.777 133.214 82.0227 133.326 81.167 133.326ZM82.5405 130.017C83.246 130.017 83.869 129.878 84.4094 129.6C84.9498 129.315 85.3738 128.932 85.6816 128.452C85.9893 127.971 86.1431 127.427 86.1431 126.819V124.984C85.993 125.082 85.7866 125.172 85.5239 125.254C85.2688 125.329 84.9798 125.401 84.6571 125.468C84.3343 125.528 84.0116 125.585 83.6889 125.637C83.3661 125.682 83.0734 125.723 82.8107 125.761C82.2478 125.844 81.7562 125.975 81.3359 126.155C80.9156 126.335 80.5891 126.579 80.3564 126.887C80.1238 127.187 80.0074 127.562 80.0074 128.013C80.0074 128.666 80.2439 129.165 80.7167 129.51C81.1971 129.848 81.805 130.017 82.5405 130.017ZM85.9743 109.673H89.3179C89.3104 111.039 88.8038 112.139 87.7981 112.972C86.7999 113.805 85.4489 114.221 83.7452 114.221C82.0339 114.221 80.6792 113.805 79.681 112.972C78.6827 112.139 78.1836 111.039 78.1836 109.673H81.5048C81.4973 110.191 81.6624 110.656 82.0001 111.069C82.3454 111.482 82.9271 111.688 83.7452 111.688C84.5407 111.688 85.1111 111.486 85.4564 111.08C85.8016 110.675 85.9743 110.206 85.9743 109.673ZM105.715 125.637V115.707H110.511V133H105.907V129.859H105.727C105.336 130.872 104.687 131.687 103.779 132.302C102.878 132.917 101.779 133.225 100.48 133.225C99.3246 133.225 98.3076 132.962 97.4295 132.437C96.5513 131.912 95.8646 131.165 95.3692 130.197C94.8814 129.229 94.6337 128.069 94.6262 126.718V115.707H99.4222V125.862C99.4297 126.883 99.7036 127.69 100.244 128.283C100.784 128.876 101.509 129.172 102.417 129.172C102.995 129.172 103.535 129.041 104.038 128.778C104.541 128.508 104.946 128.11 105.254 127.585C105.569 127.059 105.723 126.41 105.715 125.637ZM126.616 133.326C125.513 133.326 124.53 133.135 123.667 132.752C122.803 132.362 122.12 131.788 121.618 131.03C121.122 130.264 120.875 129.311 120.875 128.17C120.875 127.21 121.051 126.403 121.404 125.75C121.756 125.097 122.237 124.571 122.845 124.174C123.453 123.776 124.143 123.476 124.916 123.273C125.697 123.07 126.515 122.928 127.371 122.845C128.376 122.74 129.187 122.642 129.802 122.552C130.418 122.455 130.864 122.312 131.142 122.125C131.42 121.937 131.559 121.659 131.559 121.292V121.224C131.559 120.511 131.333 119.959 130.883 119.569C130.44 119.179 129.81 118.984 128.992 118.984C128.129 118.984 127.442 119.175 126.931 119.558C126.421 119.933 126.083 120.406 125.918 120.976L121.483 120.616C121.708 119.565 122.151 118.657 122.811 117.892C123.471 117.118 124.323 116.526 125.367 116.113C126.417 115.692 127.633 115.482 129.014 115.482C129.975 115.482 130.894 115.595 131.773 115.82C132.658 116.045 133.442 116.394 134.125 116.867C134.816 117.34 135.36 117.948 135.758 118.691C136.156 119.426 136.355 120.308 136.355 121.337V133H131.806V130.602H131.671C131.393 131.142 131.022 131.619 130.557 132.032C130.091 132.437 129.532 132.756 128.879 132.989C128.226 133.214 127.472 133.326 126.616 133.326ZM127.99 130.017C128.695 130.017 129.318 129.878 129.859 129.6C130.399 129.315 130.823 128.932 131.131 128.452C131.439 127.971 131.592 127.427 131.592 126.819V124.984C131.442 125.082 131.236 125.172 130.973 125.254C130.718 125.329 130.429 125.401 130.106 125.468C129.784 125.528 129.461 125.585 129.138 125.637C128.815 125.682 128.523 125.723 128.26 125.761C127.697 125.844 127.205 125.975 126.785 126.155C126.365 126.335 126.038 126.579 125.806 126.887C125.573 127.187 125.457 127.562 125.457 128.013C125.457 128.666 125.693 129.165 126.166 129.51C126.646 129.848 127.254 130.017 127.99 130.017ZM140.075 133V115.707H144.871V133H140.075ZM142.485 113.478C141.772 113.478 141.16 113.242 140.65 112.769C140.147 112.289 139.895 111.715 139.895 111.047C139.895 110.386 140.147 109.819 140.65 109.347C141.16 108.866 141.772 108.626 142.485 108.626C143.198 108.626 143.806 108.866 144.308 109.347C144.819 109.819 145.074 110.386 145.074 111.047C145.074 111.715 144.819 112.289 144.308 112.769C143.806 113.242 143.198 113.478 142.485 113.478ZM156.526 133.338C154.755 133.338 153.232 132.962 151.956 132.212C150.687 131.454 149.711 130.403 149.028 129.06C148.353 127.716 148.015 126.17 148.015 124.421C148.015 122.65 148.357 121.096 149.04 119.76C149.73 118.417 150.71 117.37 151.978 116.619C153.247 115.861 154.755 115.482 156.504 115.482C158.012 115.482 159.333 115.756 160.467 116.304C161.6 116.852 162.497 117.621 163.157 118.612C163.818 119.603 164.182 120.766 164.25 122.102H159.724C159.596 121.239 159.258 120.545 158.71 120.019C158.17 119.486 157.461 119.22 156.583 119.22C155.84 119.22 155.19 119.423 154.635 119.828C154.087 120.226 153.659 120.807 153.352 121.573C153.044 122.339 152.89 123.265 152.89 124.354C152.89 125.457 153.04 126.395 153.34 127.168C153.648 127.941 154.08 128.531 154.635 128.936C155.19 129.341 155.84 129.544 156.583 129.544C157.131 129.544 157.622 129.431 158.058 129.206C158.5 128.981 158.864 128.654 159.15 128.227C159.442 127.791 159.634 127.27 159.724 126.662H164.25C164.174 127.983 163.814 129.146 163.169 130.152C162.531 131.15 161.649 131.93 160.523 132.493C159.397 133.056 158.065 133.338 156.526 133.338ZM167.32 133V115.707H172.116V133H167.32ZM169.729 113.478C169.016 113.478 168.405 113.242 167.894 112.769C167.391 112.289 167.14 111.715 167.14 111.047C167.14 110.386 167.391 109.819 167.894 109.347C168.405 108.866 169.016 108.626 169.729 108.626C170.442 108.626 171.05 108.866 171.553 109.347C172.064 109.819 172.319 110.386 172.319 111.047C172.319 111.715 172.064 112.289 171.553 112.769C171.05 113.242 170.442 113.478 169.729 113.478Z" fill="white"/>
</svg>
